<mxfile host="app.diagrams.net" modified="2022-06-01T00:37:29.867Z" agent="5.0 (Macintosh; Intel Mac OS X 10_15_7) AppleWebKit/537.36 (KHTML, like Gecko) Chrome/101.0.4951.64 Safari/537.36" etag="fOCXxycNLk5S8rX7fx5S" version="18.1.3" type="github">
  <diagram id="3228e29e-7158-1315-38df-8450db1d8a1d" name="Page-1">
    <mxGraphModel dx="1298" dy="699" grid="0" gridSize="10" guides="1" tooltips="1" connect="1" arrows="1" fold="1" page="1" pageScale="1" pageWidth="600" pageHeight="280" background="#EFF1F3" math="0" shadow="0">
      <root>
        <mxCell id="0" />
        <mxCell id="1" parent="0" />
        <mxCell id="iBPsRAh9qP_mlPzIU75o-1" value="&lt;font style=&quot;font-size: 24px;&quot; color=&quot;#ffffff&quot;&gt;上游&lt;/font&gt;" style="rounded=1;whiteSpace=wrap;html=1;fillColor=#4A919B;strokeColor=none;" parent="1" vertex="1">
          <mxGeometry x="98" y="42" width="120" height="189" as="geometry" />
        </mxCell>
        <mxCell id="iBPsRAh9qP_mlPzIU75o-6" value="&lt;font style=&quot;font-size: 16px;&quot;&gt;请求&lt;/font&gt;" style="text;html=1;strokeColor=none;fillColor=none;align=center;verticalAlign=middle;whiteSpace=wrap;rounded=0;strokeWidth=3;fontColor=#535E80;" parent="1" vertex="1">
          <mxGeometry x="265" y="48" width="60" height="30" as="geometry" />
        </mxCell>
        <mxCell id="iBPsRAh9qP_mlPzIU75o-7" value="&lt;font style=&quot;font-size: 16px;&quot;&gt;响应&lt;/font&gt;" style="text;html=1;strokeColor=none;fillColor=none;align=center;verticalAlign=middle;whiteSpace=wrap;rounded=0;fontColor=#535E80;" parent="1" vertex="1">
          <mxGeometry x="270" y="192" width="60" height="30" as="geometry" />
        </mxCell>
        <mxCell id="iBPsRAh9qP_mlPzIU75o-8" value="&lt;font style=&quot;font-size: 11px;&quot;&gt;上游&lt;br style=&quot;font-size: 11px;&quot;&gt;阻塞&lt;br style=&quot;font-size: 11px;&quot;&gt;等待&lt;br&gt;&lt;/font&gt;" style="text;html=1;strokeColor=none;fillColor=none;align=center;verticalAlign=middle;whiteSpace=wrap;rounded=0;fontColor=#535E80;" parent="1" vertex="1">
          <mxGeometry x="285.5" y="127" width="82" height="34" as="geometry" />
        </mxCell>
        <mxCell id="iBPsRAh9qP_mlPzIU75o-9" value="&lt;font style=&quot;font-size: 24px;&quot; color=&quot;#ffffff&quot;&gt;下游&lt;/font&gt;" style="rounded=1;whiteSpace=wrap;html=1;fillColor=#4A919B;strokeColor=none;" parent="1" vertex="1">
          <mxGeometry x="383" y="42" width="120" height="189" as="geometry" />
        </mxCell>
        <mxCell id="iBPsRAh9qP_mlPzIU75o-17" value="" style="endArrow=openThin;html=1;rounded=0;fontSize=24;fontColor=#535E80;fillColor=#FDD276;dashed=1;strokeWidth=3;strokeColor=#535E80;endFill=0;" parent="1" edge="1">
          <mxGeometry width="50" height="50" relative="1" as="geometry">
            <mxPoint x="347" y="94" as="sourcePoint" />
            <mxPoint x="347" y="193" as="targetPoint" />
          </mxGeometry>
        </mxCell>
        <mxCell id="iBPsRAh9qP_mlPzIU75o-24" value="" style="endArrow=openThin;html=1;rounded=0;fontSize=24;fontColor=#4A919B;fillColor=#FDD276;dashed=1;strokeWidth=3;endFill=0;strokeColor=#535E80;" parent="1" edge="1">
          <mxGeometry width="50" height="50" relative="1" as="geometry">
            <mxPoint x="244" y="194" as="sourcePoint" />
            <mxPoint x="244" y="228" as="targetPoint" />
          </mxGeometry>
        </mxCell>
        <mxCell id="iBPsRAh9qP_mlPzIU75o-25" value="" style="endArrow=none;html=1;rounded=0;fontSize=24;fontColor=#4A919B;fillColor=#FDD276;dashed=1;strokeWidth=3;endFill=0;strokeColor=#535E80;startArrow=none;startFill=0;" parent="1" edge="1">
          <mxGeometry width="50" height="50" relative="1" as="geometry">
            <mxPoint x="244" y="49" as="sourcePoint" />
            <mxPoint x="244" y="90" as="targetPoint" />
          </mxGeometry>
        </mxCell>
        <mxCell id="iBPsRAh9qP_mlPzIU75o-26" value="" style="endArrow=openThin;html=1;rounded=0;dashed=1;fontSize=16;fontColor=#4A919B;strokeColor=#535E80;fillColor=#FDD276;strokeWidth=3;endFill=0;" parent="1" edge="1">
          <mxGeometry width="50" height="50" relative="1" as="geometry">
            <mxPoint x="248" y="90" as="sourcePoint" />
            <mxPoint x="345" y="90" as="targetPoint" />
          </mxGeometry>
        </mxCell>
        <mxCell id="iBPsRAh9qP_mlPzIU75o-27" value="" style="endArrow=none;html=1;rounded=0;dashed=1;fontSize=16;fontColor=#4A919B;strokeColor=#535E80;fillColor=#FDD276;strokeWidth=3;startArrow=openThin;startFill=0;endFill=0;" parent="1" edge="1">
          <mxGeometry width="50" height="50" relative="1" as="geometry">
            <mxPoint x="251" y="194" as="sourcePoint" />
            <mxPoint x="340" y="194" as="targetPoint" />
          </mxGeometry>
        </mxCell>
        <mxCell id="iBPsRAh9qP_mlPzIU75o-28" value="&lt;font style=&quot;font-size: 11px;&quot;&gt;下游&lt;br style=&quot;font-size: 11px;&quot;&gt;处理&lt;br&gt;请求&lt;br&gt;&lt;/font&gt;" style="text;html=1;strokeColor=none;fillColor=none;align=center;verticalAlign=middle;whiteSpace=wrap;rounded=0;fontColor=#535E80;" parent="1" vertex="1">
          <mxGeometry x="323" y="127" width="82" height="34" as="geometry" />
        </mxCell>
      </root>
    </mxGraphModel>
  </diagram>
</mxfile>
